<?xml version="1.0" encoding="UTF-8"?>
<svg version="1.1" xmlns="http://www.w3.org/2000/svg" xmlns:xlink="http://www.w3.org/1999/xlink"
 width="500" height="333" viewBox="0 0 1536 1024">
<defs>
  <linearGradient id="pg" x1="0%" y1="0%" x2="100%" y2="100%">
    <stop offset="0%" stop-color="#c2185b"/>
    <stop offset="100%" stop-color="#ff4081"/>
  </linearGradient>
</defs>

<metadata>
Created by potrace 1.16, written by Peter Selinger 2001-2019
</metadata>
<g transform="translate(0.000000,1024.000000) scale(0.100000,-0.100000)"
fill="url(#pg)" stroke="none">
<path d="M6254 8999 c-393 -35 -805 -209 -1121 -473 -330 -275 -579 -658 -703
-1081 -61 -211 -82 -346 -85 -575 -3 -149 -7 -196 -17 -201 -7 -4 -38 -15 -68
-24 -135 -44 -336 -161 -481 -281 -235 -195 -419 -505 -484 -819 -28 -134 -40
-335 -27 -473 21 -220 50 -336 138 -552 60 -146 194 -338 329 -472 127 -125
248 -212 400 -288 126 -62 168 -78 293 -110 189 -49 216 -50 1225 -50 l947 0
0 150 0 150 -902 0 c-956 0 -1004 2 -1180 49 -281 74 -544 268 -714 526 -92
140 -159 309 -190 485 -22 129 -22 365 1 485 87 456 394 802 840 944 163 52
188 64 211 99 21 31 22 39 17 239 -9 327 33 570 140 828 117 281 299 534 527
733 208 181 479 314 764 373 126 26 397 36 541 20 649 -71 1214 -559 1507
-1301 52 -130 81 -173 135 -196 72 -31 135 -5 203 82 132 167 324 253 544 241
113 -5 177 -24 273 -81 240 -141 371 -396 401 -779 8 -99 11 -110 37 -137 19
-20 41 -31 69 -34 23 -3 85 -10 138 -15 273 -30 540 -161 743 -365 303 -304
443 -721 380 -1134 -19 -127 -36 -189 -79 -292 -95 -225 -256 -412 -474 -550
-45 -29 -82 -54 -82 -57 0 -3 44 -60 98 -126 53 -67 100 -125 104 -131 13 -19
186 105 311 223 216 204 372 491 439 809 20 94 23 135 23 337 -1 212 -3 239
-27 345 -33 144 -67 238 -129 363 -236 472 -668 789 -1204 883 -17 3 -23 18
-37 96 -28 150 -65 265 -124 386 -142 287 -350 472 -619 550 -202 59 -385 54
-611 -16 -40 -12 -190 -88 -224 -112 l-24 -18 -66 122 c-173 316 -350 541
-584 742 -212 183 -429 306 -681 389 -277 91 -544 121 -841 94z M8410 6204
c-14 -2 -63 -9 -110 -15 -470 -62 -911 -350 -1168 -762 -136 -217 -206 -419
-239 -687 -13 -113 -14 -157 -5 -270 27 -322 106 -563 266 -804 240 -361 617
-611 1066 -707 90 -19 137 -23 330 -23 151 0 248 4 295 13 148 29 273 63 350
96 l80 35 80 -79 c44 -43 170 -165 280 -272 110 -107 279 -271 375 -364 508
-495 541 -525 629 -570 88 -43 160 -59 271 -59 176 0 308 57 433 187 173 180
194 458 50 677 -19 30 -140 158 -267 284 -127 126 -408 404 -624 619 l-392
391 29 71 c84 203 115 369 115 610 0 148 -4 199 -23 285 -79 374 -296 724
-606 979 -201 166 -460 286 -735 341 -100 20 -413 36 -480 24z m465 -349 c133
-35 192 -57 306 -117 130 -67 245 -156 360 -275 256 -267 379 -585 366 -948
-9 -255 -75 -462 -218 -680 -64 -98 -258 -294 -354 -357 -146 -96 -304 -164
-480 -204 -114 -27 -462 -27 -583 -1 -248 55 -452 162 -635 336 -237 226 -373
507 -408 849 -32 307 55 623 240 877 69 94 209 236 302 305 148 110 361 202
529 230 41 6 82 13 90 15 8 2 98 2 200 0 160 -3 198 -7 285 -30z m1591 -2800
c286 -281 545 -535 576 -564 71 -66 99 -122 99 -195 0 -65 -16 -100 -69 -148
-83 -75 -210 -90 -303 -34 -24 14 -294 273 -599 575 l-555 550 40 37 c101 93
217 209 247 249 18 25 36 43 39 42 4 -1 240 -232 525 -512z M8350 5485 c-188
-33 -345 -119 -482 -264 -221 -235 -287 -543 -177 -836 44 -118 149 -258 259
-345 l37 -29 87 109 c47 61 86 113 86 116 0 4 -24 32 -54 64 -100 108 -146
220 -146 353 0 153 50 276 153 380 99 100 214 147 363 147 97 0 167 -16 246
-56 l48 -24 20 40 c11 22 47 85 80 139 33 55 60 102 60 105 0 9 -79 47 -144
68 -139 46 -291 57 -436 33z"/>
</g>
</svg>
